<svg width="147" height="53" viewBox="0 0 147 53" fill="none" xmlns="http://www.w3.org/2000/svg">
<path fill-rule="evenodd" clip-rule="evenodd" d="M27.5778 16.8737V21.1563H13.4677C12.2214 21.1512 11.0259 20.6611 10.1347 19.7897C9.24344 18.9184 8.72636 17.7343 8.69299 16.4882V13.4689C8.69298 12.8429 8.81664 12.223 9.05685 11.6448C9.29706 11.0667 9.64911 10.5417 10.0928 10.0999C10.5364 9.65824 11.063 9.30853 11.6421 9.0709C12.2213 8.83326 12.8417 8.71238 13.4677 8.7152H27.5992C28.167 8.7152 28.7116 8.94081 29.1132 9.34238C29.5147 9.74396 29.7403 10.2886 29.7403 10.8565C29.7403 11.4244 29.5147 11.9691 29.1132 12.3707C28.7116 12.7723 28.167 12.9979 27.5992 12.9979H12.3115V16.8737H27.5778ZM13.4677 0H28.3272C31.1768 0.170873 33.8584 1.40565 35.8411 3.45985C37.8237 5.51404 38.9628 8.23789 39.0328 11.0921C38.9843 13.2929 38.3074 15.434 37.082 17.2627C35.8567 19.0915 34.1339 20.5316 32.117 21.4133L27.5778 16.8737C28.3663 16.8937 29.1509 16.7556 29.8853 16.4675C30.6197 16.1795 31.2889 15.7473 31.8537 15.1965C32.4184 14.6457 32.8671 13.9874 33.1734 13.2604C33.4797 12.5335 33.6374 11.7525 33.6372 10.9636C33.609 9.37894 32.9568 7.86939 31.8223 6.76281C30.6878 5.65623 29.1625 5.042 27.5778 5.05353H13.4677C11.236 5.05353 9.09571 5.94015 7.51766 7.51835C5.93961 9.09655 5.05307 11.237 5.05307 13.4689V16.4882C5.05307 18.7201 5.93961 20.8606 7.51766 22.4388C9.09571 24.017 11.236 24.9036 13.4677 24.9036H27.5992V29.9786H13.4677C9.89388 29.9729 6.46837 28.5491 3.9433 26.0198C1.41823 23.4905 -4.50217e-06 20.0624 0 16.4882L0 13.4689C0.00566237 9.8985 1.4264 6.47591 3.95086 3.95122C6.47531 1.42653 9.89759 0.00566289 13.4677 0V0Z" fill="#232021"/>
<path fill-rule="evenodd" clip-rule="evenodd" d="M33.2942 28.8864H38.54C38.54 27.0448 37.6621 26.0812 35.992 26.0812C34.3219 26.0812 33.4441 26.8735 33.1871 28.8864H33.2942ZM40.0816 35.1176C38.9272 35.5926 37.6898 35.8328 36.4416 35.8243C33.1443 35.8243 31.2173 34.5609 31.2173 30.1712C31.2173 26.4024 32.973 24.4324 36.1205 24.4324C36.7497 24.387 37.3812 24.4812 37.9697 24.7083C38.5583 24.9354 39.0895 25.2897 39.5252 25.7459C39.9609 26.2022 40.2905 26.749 40.4903 27.3474C40.6901 27.9459 40.7553 28.5811 40.6811 29.2076C40.6679 29.617 40.625 30.0249 40.5526 30.4281H33.2514C33.2514 33.4902 34.6003 34.1541 36.5915 34.1541C37.6574 34.1268 38.7124 33.9316 39.7176 33.5759L40.0816 35.1176Z" fill="#232021"/>
<path fill-rule="evenodd" clip-rule="evenodd" d="M49.2886 35.6102L46.4409 31.5203L43.636 35.6102H41.1737L45.3489 29.9999L41.4092 24.6466H43.8501L46.5694 28.5866L49.2029 24.6466H51.5796L47.6185 29.9999L51.7509 35.6102H49.2886Z" fill="#232021"/>
<path fill-rule="evenodd" clip-rule="evenodd" d="M55.0917 26.531V33.8972C55.8806 34.1078 56.6947 34.2087 57.5112 34.197C59.8664 34.197 60.4873 32.3983 60.4873 29.9143C60.4873 27.9443 60.1448 26.0171 57.7253 26.0171C56.8297 26.012 55.9395 26.1567 55.0917 26.4454V26.531ZM55.0917 40H52.9506V24.6467H55.0917V25.3961C56.0039 24.7326 57.1119 24.3934 58.2392 24.4325C61.4294 24.4325 62.5214 27.0664 62.5214 29.9143C62.5214 33.212 61.1725 35.8244 57.7039 35.8244C56.7704 35.8293 55.8505 35.6011 55.0275 35.1606L55.0917 40Z" fill="#232021"/>
<path fill-rule="evenodd" clip-rule="evenodd" d="M69.6929 26.2739C68.4566 26.22 67.2214 26.4017 66.053 26.8092V35.6315H64.0189V24.6465H66.0316V25.4816H66.16C67.1747 24.7377 68.4151 24.3671 69.6715 24.4323L69.6929 26.2739Z" fill="#232021"/>
<path fill-rule="evenodd" clip-rule="evenodd" d="M72.3706 28.8865H77.7234C77.7234 27.0449 76.8455 26.0813 75.1755 26.0813C73.5054 26.0813 72.6275 26.8736 72.3706 28.8865ZM79.2222 35.1177C78.0677 35.5921 76.8304 35.8323 75.5823 35.8244C72.2849 35.8244 70.3579 34.561 70.3579 30.1712C70.3579 26.4025 72.1136 24.4325 75.2611 24.4325C75.896 24.3621 76.5386 24.4392 77.1389 24.6577C77.7392 24.8761 78.281 25.2301 78.7222 25.6921C79.1635 26.1541 79.4922 26.7116 79.6829 27.3213C79.8736 27.9311 79.9211 28.5766 79.8217 29.2077C79.8089 29.6171 79.7659 30.0251 79.6932 30.4282H72.3277C72.3277 33.4903 73.6767 34.1541 75.6679 34.1541C76.7267 34.1249 77.7743 33.9299 78.7726 33.576L79.2222 35.1177Z" fill="#232021"/>
<path fill-rule="evenodd" clip-rule="evenodd" d="M81.7917 33.5333C82.8012 33.9062 83.8636 34.1159 84.9391 34.1543C86.3094 34.1543 87.4014 33.7046 87.4014 32.6125C87.4014 31.5205 86.1595 31.0708 84.7678 30.7282C83.0121 30.3427 81.4705 29.5505 81.4705 27.5376C81.4705 25.5248 83.1406 24.4327 85.7527 24.4327C86.8228 24.4857 87.8811 24.6801 88.9002 25.0108L88.5148 26.7239C87.6049 26.3387 86.6329 26.121 85.6457 26.0815C84.2968 26.0815 83.5046 26.574 83.5046 27.4305C83.5046 28.2871 84.832 28.8224 86.0097 29.1436C87.7654 29.6361 89.3927 30.1928 89.3927 32.4412C89.3927 34.6896 87.4228 35.8245 84.832 35.8245C83.6692 35.7878 82.5167 35.5934 81.4062 35.2464L81.7917 33.5333Z" fill="#232021"/>
<path fill-rule="evenodd" clip-rule="evenodd" d="M91.3201 33.5333C92.3362 33.9088 93.4062 34.1185 94.4889 34.1543C95.8378 34.1543 96.9512 33.7046 96.9512 32.6125C96.9512 31.5205 95.7308 31.0708 94.3176 30.7282C92.5619 30.3427 91.0203 29.5505 91.0203 27.5376C91.0203 25.5248 92.6904 24.4327 95.3026 24.4327C96.3725 24.4867 97.4307 24.681 98.45 25.0108L98.0646 26.7239C97.1601 26.3485 96.1956 26.1382 95.2169 26.1029C93.8466 26.1029 93.0758 26.5954 93.0758 27.4519C93.0758 28.3085 94.3819 28.8438 95.5809 29.165C97.3366 29.6575 98.9639 30.2143 98.9639 32.4627C98.9639 34.7111 96.9941 35.846 94.4033 35.846C93.2404 35.8093 92.088 35.6148 90.9775 35.2678L91.3201 33.5333Z" fill="#232021"/>
<path fill-rule="evenodd" clip-rule="evenodd" d="M102.773 26.5309V33.8971C103.468 34.1121 104.188 34.2345 104.915 34.2611C107.42 34.2611 108.062 32.4624 108.062 29.9785C108.062 28.0085 107.762 26.0813 105.129 26.0813C104.289 26.0766 103.455 26.2216 102.666 26.5095L102.773 26.5309ZM100.632 20.2569L102.773 20.0427V25.3532C103.699 24.7389 104.789 24.418 105.899 24.4324C109.047 24.4324 110.182 27.0663 110.182 29.9142C110.182 33.2119 108.683 35.8243 105.043 35.8243C103.537 35.7529 102.051 35.457 100.632 34.9464V20.2569Z" fill="#232021"/>
<path fill-rule="evenodd" clip-rule="evenodd" d="M118.491 31.2207H115.343C113.93 31.2207 113.673 31.9273 113.673 32.6768C113.673 33.8117 114.23 34.1757 115.301 34.1757C116.377 34.1393 117.446 33.9885 118.491 33.726V31.2207ZM118.491 29.8717V28.3727C118.491 26.7881 117.742 26.1029 115.986 26.1029C114.911 26.1059 113.845 26.3017 112.838 26.6811L112.539 25.0965C113.753 24.6276 115.048 24.4021 116.35 24.4327C118.855 24.4327 120.632 25.3963 120.632 28.0301V34.0901H122.045V35.3106C121.381 35.6488 120.649 35.8318 119.904 35.846C119.58 35.8866 119.253 35.8065 118.984 35.6208C118.715 35.4352 118.525 35.157 118.448 34.8395C117.428 35.5009 116.238 35.8507 115.022 35.846C114.588 35.9066 114.145 35.8703 113.726 35.7398C113.307 35.6093 112.922 35.3877 112.599 35.091C112.276 34.7943 112.022 34.4297 111.856 34.0235C111.69 33.6172 111.616 33.1793 111.639 32.741C111.639 30.4498 113.052 29.5719 115.451 29.5719C116.464 29.5719 117.476 29.6723 118.47 29.8717H118.491Z" fill="#232021"/>
<path fill-rule="evenodd" clip-rule="evenodd" d="M125.834 26.7453V35.6104H123.821V24.6468H125.834V25.4819H125.962C126.984 24.7852 128.194 24.419 129.431 24.4326C129.913 24.3752 130.402 24.4294 130.861 24.5912C131.319 24.753 131.734 25.0181 132.073 25.3658C132.412 25.7135 132.667 26.1347 132.818 26.5966C132.969 27.0586 133.011 27.5491 132.942 28.0301V35.6104H130.929V28.5868C130.929 27.1735 130.544 26.0815 128.788 26.0815C127.763 26.109 126.752 26.3344 125.812 26.7453H125.834Z" fill="#232021"/>
<path fill-rule="evenodd" clip-rule="evenodd" d="M137.696 28.9935H139.687L143.006 24.6466H145.382L141.443 29.6787L146.046 35.6102H143.541L139.73 30.6423H137.696V35.6102H135.683V20.2569L137.696 20.0427V28.9935Z" fill="#232021"/>
<path d="M84.088 50H85.768V48.944C86.36 49.712 87.24 50.192 88.248 50.192C90.216 50.192 91.672 48.688 91.672 46.144C91.672 43.648 90.232 42.08 88.248 42.08C87.272 42.08 86.376 42.528 85.768 43.344V39.328H84.088V50ZM85.768 47.68V44.624C86.136 44.048 86.968 43.568 87.752 43.568C89.096 43.568 89.944 44.64 89.944 46.144C89.944 47.648 89.096 48.704 87.752 48.704C86.968 48.704 86.136 48.256 85.768 47.68ZM98.6009 50H100.281V42.272H98.6009V47.696C98.2009 48.224 97.4649 48.704 96.6169 48.704C95.6729 48.704 95.0649 48.336 95.0649 47.136V42.272H93.3849V47.744C93.3849 49.328 94.2009 50.192 95.8649 50.192C97.0809 50.192 98.0409 49.6 98.6009 48.976V50ZM101.791 48.992C102.591 49.776 103.791 50.192 105.103 50.192C107.183 50.192 108.319 49.152 108.319 47.792C108.319 45.968 106.671 45.584 105.327 45.296C104.415 45.088 103.647 44.88 103.647 44.288C103.647 43.744 104.207 43.424 105.087 43.424C106.047 43.424 106.911 43.824 107.375 44.352L108.079 43.168C107.375 42.544 106.383 42.08 105.071 42.08C103.119 42.08 102.031 43.168 102.031 44.432C102.031 46.16 103.615 46.512 104.943 46.8C105.887 47.008 106.703 47.248 106.703 47.92C106.703 48.496 106.191 48.864 105.183 48.864C104.175 48.864 103.103 48.336 102.559 47.776L101.791 48.992ZM110.842 40.992C111.418 40.992 111.882 40.528 111.882 39.952C111.882 39.376 111.418 38.912 110.842 38.912C110.282 38.912 109.802 39.376 109.802 39.952C109.802 40.528 110.282 40.992 110.842 40.992ZM110.01 50H111.69V42.272H110.01V50ZM119.085 50H120.765V44.56C120.765 42.976 119.933 42.08 118.269 42.08C117.053 42.08 116.061 42.72 115.549 43.328V42.272H113.869V50H115.549V44.608C115.933 44.08 116.669 43.568 117.533 43.568C118.477 43.568 119.085 43.968 119.085 45.168V50ZM122.467 46.128C122.467 48.576 124.195 50.192 126.515 50.192C127.747 50.192 128.883 49.808 129.651 49.072L128.883 47.968C128.339 48.512 127.443 48.816 126.691 48.816C125.235 48.816 124.355 47.856 124.227 46.688H130.195V46.288C130.195 43.856 128.707 42.08 126.387 42.08C124.099 42.08 122.467 43.888 122.467 46.128ZM126.387 43.456C127.907 43.456 128.531 44.592 128.563 45.504H124.211C124.291 44.56 124.947 43.456 126.387 43.456ZM131.182 48.992C131.982 49.776 133.182 50.192 134.494 50.192C136.574 50.192 137.71 49.152 137.71 47.792C137.71 45.968 136.062 45.584 134.718 45.296C133.806 45.088 133.038 44.88 133.038 44.288C133.038 43.744 133.598 43.424 134.478 43.424C135.438 43.424 136.302 43.824 136.766 44.352L137.47 43.168C136.766 42.544 135.774 42.08 134.462 42.08C132.51 42.08 131.422 43.168 131.422 44.432C131.422 46.16 133.006 46.512 134.334 46.8C135.278 47.008 136.094 47.248 136.094 47.92C136.094 48.496 135.582 48.864 134.574 48.864C133.566 48.864 132.494 48.336 131.95 47.776L131.182 48.992ZM138.729 48.992C139.529 49.776 140.729 50.192 142.041 50.192C144.121 50.192 145.257 49.152 145.257 47.792C145.257 45.968 143.609 45.584 142.265 45.296C141.353 45.088 140.585 44.88 140.585 44.288C140.585 43.744 141.145 43.424 142.025 43.424C142.985 43.424 143.849 43.824 144.313 44.352L145.017 43.168C144.313 42.544 143.321 42.08 142.009 42.08C140.057 42.08 138.969 43.168 138.969 44.432C138.969 46.16 140.553 46.512 141.881 46.8C142.825 47.008 143.641 47.248 143.641 47.92C143.641 48.496 143.129 48.864 142.121 48.864C141.113 48.864 140.041 48.336 139.497 47.776L138.729 48.992Z" fill="#FAA61A"/>
</svg>
