<svg width="21" height="20" viewBox="0 0 21 20" fill="none" xmlns="http://www.w3.org/2000/svg">
<g clip-path="url(#clip0_1_450)">
<path d="M18.2739 2.77786H2.71832C1.49109 2.77786 0.496094 3.77232 0.496094 5.00009V15.0001C0.496094 16.2279 1.49109 17.2223 2.71832 17.2223H18.2739C19.5011 17.2223 20.4961 16.2279 20.4961 15.0001V5.00009C20.4961 3.77232 19.5011 2.77786 18.2739 2.77786Z" fill="#003399"/>
<path d="M10.7954 14.9515L11.267 14.6087H10.6843L10.5037 14.0543L10.3237 14.6087H9.74094L10.2126 14.9515L10.0321 15.506L10.5038 15.1632L10.9754 15.506L10.7954 14.9515Z" fill="#FFCC00"/>
<path d="M10.7954 5.322L11.267 4.97923H10.6843L10.5037 4.42477L10.3237 4.97923H9.74094L10.2126 5.322L10.0321 5.87645L10.5038 5.53368L10.9754 5.87645L10.7954 5.322Z" fill="#FFCC00"/>
<path d="M5.9809 10.1366L6.45258 9.79386H5.8698L5.68926 9.23941L5.50926 9.79386H4.92648L5.39816 10.1366L5.21762 10.6911L5.6893 10.3483L6.16098 10.6911L5.9809 10.1366Z" fill="#FFCC00"/>
<path d="M6.59693 12.5173L7.0686 12.1745H6.48583L6.30528 11.6201L6.12528 12.1745H5.54251L6.01419 12.5173L5.83364 13.0718L6.30532 12.729L6.777 13.0718L6.59693 12.5173Z" fill="#FFCC00"/>
<path d="M6.59693 7.72923L7.0686 7.38645H6.48583L6.30528 6.832L6.12528 7.38645H5.54251L6.01419 7.72923L5.83364 8.28368L6.30532 7.94091L6.777 8.28368L6.59693 7.72923Z" fill="#FFCC00"/>
<path d="M8.38852 14.3066L8.8602 13.9638H8.27743L8.09688 13.4094L7.91688 13.9638H7.33411L7.80579 14.3066L7.62524 14.8611L8.09692 14.5183L8.5686 14.8611L8.38852 14.3066Z" fill="#FFCC00"/>
<path d="M8.38852 5.9354L8.8602 5.59263H8.27743L8.09688 5.03818L7.91688 5.59263H7.33411L7.80579 5.9354L7.62524 6.48986L8.09692 6.14708L8.5686 6.48986L8.38852 5.9354Z" fill="#FFCC00"/>
<path d="M15.0121 10.1366L14.5405 9.79386H15.1232L15.3038 9.23941L15.4838 9.79386H16.0666L15.5949 10.1366L15.7754 10.6911L15.3037 10.3483L14.8321 10.6911L15.0121 10.1366Z" fill="#FFCC00"/>
<path d="M14.3959 12.5173L13.9242 12.1745H14.507L14.6875 11.6201L14.8675 12.1745H15.4503L14.9786 12.5173L15.1592 13.0718L14.6875 12.729L14.2158 13.0718L14.3959 12.5173Z" fill="#FFCC00"/>
<path d="M14.3959 7.72923L13.9242 7.38645H14.507L14.6875 6.832L14.8675 7.38645H15.4503L14.9786 7.72923L15.1592 8.28368L14.6875 7.94091L14.2158 8.28368L14.3959 7.72923Z" fill="#FFCC00"/>
<path d="M12.6043 14.3066L12.1326 13.9638H12.7154L12.896 13.4094L13.076 13.9638H13.6587L13.187 14.3066L13.3676 14.8611L12.8959 14.5183L12.4242 14.8611L12.6043 14.3066Z" fill="#FFCC00"/>
<path d="M12.6043 5.9354L12.1326 5.59263H12.7154L12.896 5.03818L13.076 5.59263H13.6587L13.187 5.9354L13.3676 6.48986L12.8959 6.14708L12.4242 6.48986L12.6043 5.9354Z" fill="#FFCC00"/>
</g>
<defs>
<clipPath id="clip0_1_450">
<rect width="20" height="20" fill="white" transform="matrix(1 0 0 -1 0.496094 20)"/>
</clipPath>
</defs>
</svg>
