<svg width="21" height="20" viewBox="0 0 21 20" fill="none" xmlns="http://www.w3.org/2000/svg">
<g clip-path="url(#clip0_1_401)">
<path d="M0.0976562 7.22226H3.22432L0.0976562 5.03339V7.22226Z" fill="#00247D"/>
<path d="M2.68895 17.2222H7.32005V13.9795L2.68895 17.2222Z" fill="#00247D"/>
<path d="M12.875 13.98V17.2222H17.5056L12.875 13.98Z" fill="#00247D"/>
<path d="M0.0976562 12.7778V14.9673L3.22544 12.7778H0.0976562Z" fill="#00247D"/>
<path d="M17.5082 2.77782H12.8765V6.0206L17.5082 2.77782Z" fill="#00247D"/>
<path d="M16.9697 12.7778L20.098 14.9678V12.7778H16.9697Z" fill="#00247D"/>
<path d="M16.971 7.22226H20.0982V5.0328L16.971 7.22226Z" fill="#00247D"/>
<path d="M7.32005 2.77782H2.68895L7.32005 6.0206V2.77782Z" fill="#00247D"/>
<path d="M14.0641 12.7778L19.4596 16.5562C19.7213 16.2895 19.9085 15.955 20.0096 15.5845L16.0013 12.7778H14.0641V12.7778Z" fill="#CF1B2B"/>
<path d="M7.32027 12.7778H6.13082L0.735796 16.5555C1.02525 16.85 1.39634 17.0605 1.81246 17.1583L7.32022 13.3016V12.7778H7.32027Z" fill="#CF1B2B"/>
<path d="M12.8758 7.22223H14.0652L19.4603 3.44444C19.1708 3.15001 18.7997 2.93946 18.3841 2.84166L12.8758 6.69835V7.22223V7.22223Z" fill="#CF1B2B"/>
<path d="M6.13018 7.22223L0.735215 3.44445C0.473545 3.7111 0.286338 4.04557 0.184678 4.41613L4.19303 7.22223H6.13018Z" fill="#CF1B2B"/>
<path d="M20.0981 11.6667H11.7648V17.2222H12.8759V13.98L17.5065 17.2222H17.8759C18.4964 17.2222 19.057 16.9661 19.4603 16.5561L14.0648 12.7778H16.002L20.0103 15.5845C20.062 15.3973 20.0981 15.2034 20.0981 15.0001V14.9678L16.9698 12.7778H20.0981V11.6667Z" fill="#EEEEEE"/>
<path d="M0.0976562 11.6667V12.7778H3.22544L0.0976562 14.9672V15C0.0976562 15.6061 0.341553 16.1545 0.735449 16.5556L6.13047 12.7778H7.31992V13.3017L1.81211 17.1584C1.97544 17.1967 2.14434 17.2222 2.31987 17.2222H2.68877L7.31987 13.9795V17.2222H8.43101V11.6667H0.0976562Z" fill="#EEEEEE"/>
<path d="M20.0981 4.99996C20.0981 4.39386 19.8542 3.84552 19.4603 3.4444L14.0653 7.22218H12.8758V6.6983L18.3842 2.84161C18.2204 2.80328 18.0515 2.77775 17.8759 2.77775H17.5076L12.8759 6.02052V2.77775H11.7648V8.33331H20.0981V7.22218H16.9709L20.0981 5.03273V4.99996Z" fill="#EEEEEE"/>
<path d="M7.31987 2.77775V6.02052L2.68877 2.77775H2.31987C1.69878 2.77775 1.13877 3.03385 0.735449 3.4444L6.13047 7.22218H4.19321L0.184863 4.41608C0.133789 4.60328 0.0976562 4.79664 0.0976562 4.99996V5.03273L3.22432 7.22218H0.0976562V8.33331H8.43101V2.77775H7.31987V2.77775Z" fill="#EEEEEE"/>
<path d="M11.7643 8.33336V2.7778H8.43096V8.33336H0.0976562V10V11.6667H8.43101V17.2222H11.7644V11.6667H20.0977V10V8.33336H11.7643V8.33336Z" fill="#CF1B2B"/>
</g>
<defs>
<clipPath id="clip0_1_401">
<rect width="20" height="20" fill="white" transform="translate(0.0976562)"/>
</clipPath>
</defs>
</svg>
