<svg width="21" height="21" viewBox="0 0 21 21" fill="none" xmlns="http://www.w3.org/2000/svg">
<g clip-path="url(#clip0_1_382)">
<path d="M20.3984 15.5C20.3984 16.7273 19.4034 17.7222 18.1762 17.7222H2.62065C1.39346 17.7222 0.398438 16.7273 0.398438 15.5V13.2778H20.3984V15.5Z" fill="#CE2028"/>
<path d="M18.1762 3.81256H2.62065C2.12916 3.81256 1.65892 4.08085 1.30046 4.56478C0.942034 5.04864 0.710938 5.73185 0.710938 6.50006V9.18756H20.0859V6.50006C20.0859 5.73185 19.8548 5.04864 19.4964 4.56478C19.138 4.08085 18.6677 3.81256 18.1762 3.81256Z" fill="white" stroke="#BFC5D2" stroke-width="0.5"/>
<path d="M20.3984 13.5001H0.398438V8.50006H20.3984V13.5001Z" fill="#22408C"/>
</g>
<defs>
<clipPath id="clip0_1_382">
<rect width="20" height="20" fill="white" transform="translate(0.398438 0.5)"/>
</clipPath>
</defs>
</svg>
