<svg width="21" height="15" viewBox="0 0 21 15" fill="none" xmlns="http://www.w3.org/2000/svg">
<path d="M20.3909 1.38893C20.0059 0.727246 19.2976 0.277832 18.477 0.277832H10.6992V1.38893H20.3909H20.3909Z" fill="#B22334"/>
<path d="M0.699219 12.4999H20.6992V11.3888H0.699219V12.4999Z" fill="#B22334"/>
<path d="M20.6992 6.94452H10.6992V8.05562H20.6992V6.94452Z" fill="#B22334"/>
<path d="M20.6992 4.72223H10.6992V5.83332H20.6992V4.72223Z" fill="#B22334"/>
<path d="M20.6992 9.16675H0.699219V10.2778H20.6992V9.16675Z" fill="#B22334"/>
<path d="M18.4771 14.7222C19.2976 14.7222 20.006 14.2727 20.391 13.6111H1.00763C1.39263 14.2728 2.10095 14.7222 2.92154 14.7222H18.4771Z" fill="#B22334"/>
<path d="M20.6992 2.5H10.6992V3.61109H20.6992V2.5Z" fill="#B22334"/>
<path d="M0.699219 2.49997C0.699219 2.37051 0.715898 2.24606 0.736992 2.12274C0.714766 2.24552 0.699219 2.37051 0.699219 2.49997Z" fill="#EEEEEE"/>
<path d="M1.00747 1.38904C1.00693 1.39013 1.00638 1.39072 1.00638 1.39181C1.00693 1.39068 1.00693 1.39013 1.00747 1.38904Z" fill="#EEEEEE"/>
<path d="M0.769867 1.96923C0.783773 1.91255 0.803187 1.85868 0.820961 1.80423C0.80264 1.85868 0.78432 1.91314 0.769867 1.96923Z" fill="#EEEEEE"/>
<path d="M10.6992 0.27771H2.92145C1.69422 0.27771 0.699219 1.27271 0.699219 2.49994V8.05548H10.6992V0.27771Z" fill="#3C3B6E"/>
<path d="M1.81055 1.79199L2.15387 2.04145L2.02277 2.44477L2.36555 2.19531L2.70887 2.44477L2.57719 2.04145L2.92109 1.79199H2.49664L2.36555 1.38867L2.235 1.79199H1.81055Z" fill="white"/>
<path d="M2.92166 2.90295L3.26498 3.15241L3.1333 3.55573L3.47662 3.30627L3.81994 3.55573L3.68826 3.15241L4.03217 2.90295H3.60775L3.47666 2.49963L3.34611 2.90295H2.92166Z" fill="white"/>
<path d="M5.14453 2.90295L5.48785 3.15241L5.35617 3.55573L5.69949 3.30627L6.04281 3.55573L5.91113 3.15241L6.25503 2.90295H5.83058L5.69949 2.49963L5.56894 2.90295H5.14453Z" fill="white"/>
<path d="M7.36554 2.90295L7.70886 3.15241L7.57718 3.55573L7.9205 3.30627L8.26382 3.55573L8.13214 3.15241L8.47605 2.90295H8.05159L7.9205 2.49963L7.78995 2.90295H7.36554Z" fill="white"/>
<path d="M2.92166 5.12549L3.26498 5.37494L3.1333 5.77826L3.47662 5.52881L3.81994 5.77826L3.68826 5.37494L4.03217 5.12549H3.60775L3.47666 4.72217L3.34611 5.12549H2.92166Z" fill="white"/>
<path d="M5.14453 5.12549L5.48785 5.37494L5.35617 5.77826L5.69949 5.52881L6.04281 5.77826L5.91113 5.37494L6.25503 5.12549H5.83058L5.69949 4.72217L5.56894 5.12549H5.14453Z" fill="white"/>
<path d="M7.36554 5.12549L7.70886 5.37494L7.57718 5.77826L7.9205 5.52881L8.26382 5.77826L8.13214 5.37494L8.47605 5.12549H8.05159L7.9205 4.72217L7.78995 5.12549H7.36554Z" fill="white"/>
<path d="M4.03241 1.79199L4.37573 2.04145L4.24405 2.44477L4.58737 2.19531L4.93069 2.44477L4.79901 2.04145L5.14292 1.79199H4.71846L4.58737 1.38867L4.45682 1.79199H4.03241Z" fill="white"/>
<path d="M6.25455 1.79199L6.59787 2.04145L6.46619 2.44477L6.80951 2.19531L7.15283 2.44477L7.02115 2.04145L7.36506 1.79199H6.9406L6.80951 1.38867L6.67896 1.79199H6.25455Z" fill="white"/>
<path d="M8.47742 1.79199L8.82074 2.04145L8.68906 2.44477L9.03238 2.19531L9.3757 2.44477L9.24402 2.04145L9.58792 1.79199H9.16347L9.03238 1.38867L8.90183 1.79199H8.47742Z" fill="white"/>
<path d="M1.81055 4.01428L2.15387 4.26374L2.02277 4.66706L2.36555 4.4176L2.70887 4.66706L2.57719 4.26374L2.92109 4.01428H2.49664L2.36555 3.61096L2.235 4.01428H1.81055Z" fill="white"/>
<path d="M4.24461 4.66694L4.58793 4.41748L4.9307 4.66694L4.79961 4.26362L5.14293 4.01416H4.71902L4.58793 3.61139L4.45683 4.01416H4.03293L4.3757 4.26362L4.24461 4.66694Z" fill="white"/>
<path d="M6.25455 4.01428L6.59787 4.26374L6.46619 4.66706L6.80951 4.4176L7.15283 4.66706L7.02115 4.26374L7.36506 4.01428H6.9406L6.80951 3.61096L6.67896 4.01428H6.25455Z" fill="white"/>
<path d="M8.47742 4.01428L8.82074 4.26374L8.68906 4.66706L9.03238 4.4176L9.3757 4.66706L9.24402 4.26374L9.58792 4.01428H9.16347L9.03238 3.61096L8.90183 4.01428H8.47742Z" fill="white"/>
<path d="M1.81055 6.23657L2.15387 6.48603L2.02277 6.88935L2.36555 6.63989L2.70887 6.88935L2.57719 6.48603L2.92109 6.23657H2.49664L2.36555 5.83325L2.235 6.23657H1.81055Z" fill="white"/>
<path d="M4.24461 6.88929L4.58793 6.63983L4.9307 6.88929L4.79961 6.48597L5.14293 6.23651H4.71902L4.58793 5.83374L4.45683 6.23651H4.03293L4.3757 6.48597L4.24461 6.88929Z" fill="white"/>
<path d="M6.25455 6.23657L6.59787 6.48603L6.46619 6.88935L6.80951 6.63989L7.15283 6.88935L7.02115 6.48603L7.36506 6.23657H6.9406L6.80951 5.83325L6.67896 6.23657H6.25455Z" fill="white"/>
<path d="M8.47656 6.23657L8.81988 6.48603L8.6882 6.88935L9.03152 6.63989L9.37484 6.88935L9.24316 6.48603L9.58707 6.23657H9.16262L9.03152 5.83325L8.90098 6.23657H8.47656Z" fill="white"/>
</svg>
