<svg width="21" height="15" viewBox="0 0 21 15" fill="none" xmlns="http://www.w3.org/2000/svg">
<path d="M20.2969 12.7223C20.2969 13.9495 19.3019 14.9445 18.0747 14.9445H2.51909C1.2919 14.9445 0.296875 13.9495 0.296875 12.7223V2.7223C0.296875 1.49506 1.2919 0.500086 2.51909 0.500086H18.0747C19.3019 0.500086 20.2969 1.49511 20.2969 2.7223V12.7223Z" fill="#E30917"/>
<path d="M9.18578 11.0557C7.34467 11.0557 5.85243 9.56349 5.85243 7.72238C5.85243 5.88126 7.34467 4.38903 9.18578 4.38903C9.9141 4.38903 10.5858 4.62516 11.1341 5.02125C10.3852 4.17457 9.29413 3.63737 8.0747 3.63737C5.81859 3.63737 3.98969 5.46627 3.98969 7.72238C3.98969 9.97848 5.81859 11.8079 8.0747 11.8079C9.29413 11.8079 10.3858 11.2707 11.1341 10.4229C10.5864 10.8196 9.91469 11.0557 9.18578 11.0557Z" fill="#EEEEEE"/>
<path d="M11.3598 7.85021L12.7148 8.16242L12.8376 9.54742L13.5532 8.35519L14.9087 8.66686L13.9954 7.6174L14.7104 6.42516L13.4304 6.96959L12.5176 5.92013L12.6398 7.30568L11.3598 7.85021Z" fill="#EEEEEE"/>
</svg>
