<svg width="40" height="40" viewBox="0 0 40 40" fill="none" xmlns="http://www.w3.org/2000/svg">
<path d="M28.3768 11.6231L30.0739 9.92606" stroke="white" stroke-width="2.39838" stroke-linecap="round"/>
<path d="M20.0006 8.15323V5.75323" stroke="white" stroke-width="2.39838" stroke-linecap="round"/>
<path fill-rule="evenodd" clip-rule="evenodd" d="M19.9869 31.9785C22.4848 31.9785 24.8042 31.2148 26.7246 29.9081C25.7157 29.6249 24.9759 28.6982 24.9759 27.5988C24.9759 26.2742 26.0497 25.2004 27.3743 25.2004H29.5673C29.1018 24.2979 29.2473 23.1618 30.0038 22.4053C30.5119 21.8972 31.1913 21.6647 31.8562 21.7079C31.937 21.1458 31.9788 20.571 31.9788 19.9865C31.9788 13.3636 26.6099 7.99461 19.9869 7.99461C13.364 7.99461 7.995 13.3636 7.995 19.9865C7.995 26.6095 13.364 31.9785 19.9869 31.9785ZM23.9398 19.4049L18.6816 26.0801C18.2834 26.5953 17.6276 26.2616 17.8618 25.6351L19.4955 21.2728H16.3101C16.0583 21.2728 15.8768 21.0971 15.8768 20.857C15.8768 20.7223 15.9295 20.6052 16.0291 20.4764L21.2872 13.8012C21.6854 13.2918 22.3412 13.6197 22.107 14.2462L20.4733 18.6085H23.6587C23.9105 18.6085 24.092 18.7842 24.092 19.0243C24.092 19.1589 24.0393 19.2761 23.9398 19.4049Z" fill="white"/>
<path d="M34.371 28.3983C34.8126 28.3983 35.1705 28.0403 35.1705 27.5988C35.1705 27.1573 34.8126 26.7993 34.371 26.7993L34.371 28.3983ZM27.3743 26.7993C26.9327 26.7993 26.5748 27.1573 26.5748 27.5988C26.5748 28.0403 26.9327 28.3983 27.3743 28.3983L27.3743 26.7993ZM34.371 26.7993L27.3743 26.7993L27.3743 28.3983L34.371 28.3983L34.371 26.7993Z" fill="white"/>
<path d="M31.6997 24.1012L35.1981 27.5996L31.6997 31.098" stroke="white" stroke-width="1.59892" stroke-linecap="round" stroke-linejoin="round"/>
</svg>
