<svg width="24" height="25" viewBox="0 0 24 25" fill="none" xmlns="http://www.w3.org/2000/svg">
<path d="M12.0007 19.9071L0.88916 12.037V16.2344V23.3762C0.88916 24.2732 1.58347 25 2.44031 25H21.5602C22.4171 25 23.1114 24.2732 23.1114 23.3762V16.2344V12.037L12.0007 19.9071Z" fill="white"/>
<path d="M4.18285 12.6189L6.00891 13.8888V3.26203C6.00891 2.49793 6.61393 1.8763 7.35747 1.8763H16.6431C17.3867 1.8763 17.9916 2.49799 17.9916 3.26203V13.8888L19.8177 12.6189L22.3134 10.8836L23.1114 10.3287L19.8177 8.2535V3.26203C19.8177 1.46029 18.3965 -9.15527e-05 16.6431 -9.15527e-05H7.35747C5.60406 -9.15527e-05 4.18285 1.46029 4.18285 3.26203V8.2535L0.88916 10.3287L1.68671 10.8836L4.18285 12.6189Z" fill="white"/>
<path fill-rule="evenodd" clip-rule="evenodd" d="M9.34233 7.53695C8.83096 7.53695 8.41641 7.12239 8.41641 6.61102L8.41641 5.74483C8.41641 4.72208 9.24551 3.89297 10.2683 3.89297L13.972 3.89297C14.9947 3.89297 15.8238 4.72208 15.8238 5.74483L15.8238 6.61102C15.8238 7.12239 15.4093 7.53695 14.8979 7.53695C14.3865 7.53695 13.972 7.12239 13.972 6.61102L13.972 5.74483L10.2683 5.74483L10.2683 6.61102C10.2683 7.12239 9.85371 7.53695 9.34233 7.53695Z" fill="white"/>
<path fill-rule="evenodd" clip-rule="evenodd" d="M14.8979 19.0063C15.4093 19.0063 15.8238 19.4209 15.8238 19.9323L15.8238 20.7984C15.8238 21.8212 14.9947 22.6503 13.972 22.6503L10.2683 22.6503C9.24551 22.6503 8.41641 21.8212 8.41641 20.7984L8.41641 19.9323C8.41641 19.4209 8.83096 19.0063 9.34233 19.0063C9.85371 19.0063 10.2683 19.4209 10.2683 19.9323L10.2683 20.7984L13.972 20.7984L13.972 19.9323C13.972 19.4209 14.3865 19.0063 14.8979 19.0063Z" fill="white"/>
<path fill-rule="evenodd" clip-rule="evenodd" d="M14.2806 13.2717C14.2806 12.2068 13.371 11.2406 12.1201 11.2407C10.8692 11.2407 9.95958 12.2068 9.95958 13.2717C9.95958 14.3367 10.8692 15.3028 12.1201 15.3028C13.371 15.3028 14.2806 14.3367 14.2806 13.2717ZM16.1324 13.2717C16.1324 11.1272 14.336 9.3888 12.1201 9.3888C9.90411 9.3888 8.10773 11.1272 8.10773 13.2717C8.10773 15.4162 9.90412 17.1546 12.1201 17.1546C14.336 17.1546 16.1324 15.4162 16.1324 13.2717Z" fill="white"/>
</svg>
