<svg width="26" height="17" viewBox="0 0 26 17" fill="none" xmlns="http://www.w3.org/2000/svg">
<path fill-rule="evenodd" clip-rule="evenodd" d="M1.99988 0.000183105C0.895309 0.000183105 -0.00012207 0.895613 -0.00012207 2.00018V15.0002C-0.00012207 16.1048 0.895308 17.0002 1.99988 17.0002H23.9999C25.1044 17.0002 25.9999 16.1048 25.9999 15.0002V2.00018C25.9999 0.895614 25.1044 0.000183105 23.9999 0.000183105H1.99988ZM12.9999 6.00018C13.5522 6.00018 13.9999 5.55247 13.9999 5.00018C13.9999 4.4479 13.5522 4.00018 12.9999 4.00018H4.99988C4.44759 4.00018 3.99988 4.4479 3.99988 5.00018C3.99988 5.55247 4.44759 6.00018 4.99988 6.00018H12.9999ZM9.99988 10.0002C10.5522 10.0002 10.9999 9.55247 10.9999 9.00018C10.9999 8.4479 10.5522 8.00018 9.99988 8.00018H4.99988C4.44759 8.00018 3.99988 8.4479 3.99988 9.00018C3.99988 9.55247 4.44759 10.0002 4.99988 10.0002H9.99988ZM17.9999 9.00018C17.9999 9.55247 17.5522 10.0002 16.9999 10.0002H13.9999C13.4476 10.0002 12.9999 9.55247 12.9999 9.00018C12.9999 8.4479 13.4476 8.00018 13.9999 8.00018H16.9999C17.5522 8.00018 17.9999 8.4479 17.9999 9.00018ZM17.9999 6.00018C18.5522 6.00018 18.9999 5.55247 18.9999 5.00018C18.9999 4.4479 18.5522 4.00018 17.9999 4.00018H16.9999C16.4476 4.00018 15.9999 4.4479 15.9999 5.00018C15.9999 5.55247 16.4476 6.00018 16.9999 6.00018H17.9999Z" fill="white"/>
</svg>
